PathFileType	4	(X/Y/Z)	 s10c0001.trc
DataRate	CameraRate	NumFrames	NumMarkers	Units	OrigDataRate	OrigDataStartFrame	OrigNumFrames
200	200	4	49	mm	200	501	2000
Frame#	Time	racr			lacr			c7			jug			rlel			rdr			llel			ldr			s2			lic			ric			lasi			rasi			rpsi			lpsi			rgt			lgt			rth1			rth2			rth3			rth4			rlfc			rmfc			rsh1			rsh2			rsh3			rsh4			rlmal			rmmal			rcal			rtoe			rmt5			rmt1			lth1			lth2			lth4			lth3			llfc			lmfc			llmal			lmmal			lcal			lmt1			lmt5			lsh1			lsh2			lsh3			lsh4			ltoe			
		X1	Y1	Z1	X2	Y2	Z2	X3	Y3	Z3	X4	Y4	Z4	X5	Y5	Z5	X6	Y6	Z6	X7	Y7	Z7	X8	Y8	Z8	X9	Y9	Z9	X10	Y10	Z10	X11	Y11	Z11	X12	Y12	Z12	X13	Y13	Z13	X14	Y14	Z14	X15	Y15	Z15	X16	Y16	Z16	X17	Y17	Z17	X18	Y18	Z18	X19	Y19	Z19	X20	Y20	Z20	X21	Y21	Z21	X22	Y22	Z22	X23	Y23	Z23	X24	Y24	Z24	X25	Y25	Z25	X26	Y26	Z26	X27	Y27	Z27	X28	Y28	Z28	X29	Y29	Z29	X30	Y30	Z30	X31	Y31	Z31	X32	Y32	Z32	X33	Y33	Z33	X34	Y34	Z34	X35	Y35	Z35	X36	Y36	Z36	X37	Y37	Z37	X38	Y38	Z38	X39	Y39	Z39	X40	Y40	Z40	X41	Y41	Z41	X42	Y42	Z42	X43	Y43	Z43	X44	Y44	Z44	X45	Y45	Z45	X46	Y46	Z46	X47	Y47	Z47	X48	Y48	Z48	X49	Y49	Z49	
501	2.5050	462.163892	1377.150438	683.793516	482.088180	1385.923639	305.423649	431.451935	1426.360172	485.463957	562.140573	1373.045971	502.189987	454.861662	1119.772830	814.933524	476.539622	907.336920	926.833831	480.838899	1106.553501	197.004369	534.989264	903.068083	94.967300	386.957367	931.405768	496.858684	533.334532	993.529881	350.419628	536.709753	1001.472639	649.826703	597.275909	918.606594	383.167879	581.399298	907.684235	639.150232	405.794230	971.921359	558.897078	405.804883	983.451171	445.828364	464.621033	853.624472	684.416075	471.033759	854.392542	308.612799	484.417253	729.152654	715.046996	506.898588	643.217862	700.638514	484.883765	561.442845	691.969069	543.692918	646.032769	691.991368	493.780976	459.296933	675.134396	481.813889	441.190315	562.532741	447.906950	360.061782	716.978873	468.982793	273.171334	714.764177	444.304073	190.591487	716.729351	500.671093	274.181833	691.573609	454.082635	84.970618	709.945822	483.554601	95.910301	630.089053	420.298927	50.303140	655.094270	651.999992	85.049326	711.315352	566.088801	42.111235	755.906118	609.717462	46.710399	658.384359	493.340588	746.167088	283.027089	515.182606	665.021513	292.555663	549.879811	666.212498	305.011588	494.152200	577.859309	301.231072	495.486722	472.736545	315.154066	491.210168	454.617403	425.588921	450.737963	103.855113	284.059802	469.842153	100.966084	362.337981	411.039467	58.716655	327.114417	612.112960	47.345607	347.341379	579.638797	46.101969	245.184714	446.187174	364.329216	269.992517	472.428627	281.444377	275.865463	451.896891	194.312020	273.380484	501.451541	283.083073	301.612290	653.389735	92.343688	295.277315	
502	2.5100	462.134294	1377.161262	683.801673	482.094170	1385.922059	305.429478	431.391113	1426.365403	485.539958	562.126826	1373.051415	502.184226	454.778807	1119.772414	814.913036	476.530521	907.346783	926.860163	480.825689	1106.582039	196.977747	534.941171	903.092136	94.930833	386.954534	931.408050	496.899250	533.336915	993.540194	350.434362	536.696784	1001.478097	649.846141	597.239110	918.609942	383.173859	581.375120	907.684560	639.158442	405.905517	971.875827	558.912255	405.816551	983.455451	445.857091	464.646983	853.634546	684.446855	471.056440	854.369386	308.638345	484.424625	729.157922	715.063710	506.902753	643.253241	700.648791	484.886947	561.445646	691.990950	543.722429	646.037049	692.053094	493.801726	459.310371	675.162884	481.788848	441.185898	562.531139	447.907459	360.068311	716.986942	468.966257	273.215455	714.741598	444.320722	190.578293	716.733215	500.681058	274.178799	691.584391	454.124416	84.996962	709.970104	483.576221	95.917123	630.090599	420.347050	50.261840	655.115618	652.010616	85.045399	711.336598	566.136642	42.123507	755.903526	609.725720	46.728020	658.388240	493.342453	746.161675	283.023309	515.183302	665.046031	292.562306	549.881973	666.205907	305.018775	494.158071	577.858465	301.239714	495.477817	472.724188	315.159677	491.229193	454.626066	425.618481	450.755229	103.852083	284.091412	469.863764	100.952950	362.357036	411.050315	58.703382	327.139477	612.123177	47.371037	347.357351	579.634337	46.105832	245.172619	446.195814	364.316199	269.981813	472.432196	281.447510	275.865988	451.885486	194.307632	273.388035	501.469295	283.090183	301.610302	653.407580	92.351516	295.303930	
503	2.5150	462.119511	1377.165638	683.795435	482.107121	1385.934612	305.430444	431.388821	1426.367124	485.539261	562.096288	1373.073048	502.178723	454.788538	1119.782750	814.927243	476.500628	907.355705	926.854555	480.850467	1106.648638	196.927562	534.901420	903.112922	94.892034	386.974540	931.415167	496.884178	533.343323	993.537235	350.425440	536.724025	1001.484423	649.850628	597.260690	918.613393	383.193054	581.368454	907.693234	639.178066	405.943780	971.878545	558.912592	405.823759	983.444711	445.853345	464.643741	853.645585	684.456440	471.055820	854.384221	308.637618	484.422150	729.175911	715.063551	506.922116	643.274867	700.676728	484.896419	561.436015	691.995295	543.749707	646.066304	692.074835	493.812281	459.324200	675.174753	481.791677	441.193375	562.530637	447.908386	360.088010	716.977123	468.963447	273.173729	714.774579	444.329803	190.571138	716.735186	500.671158	274.205396	691.580863	454.134767	84.991056	709.988874	483.579561	95.922041	630.063363	420.224809	50.516505	655.019728	652.022717	85.053501	711.338204	566.137402	42.129853	755.931859	609.737244	46.727116	658.398111	493.342478	746.157256	283.032604	515.169706	665.060734	292.513481	549.839611	666.226205	304.969506	494.157016	577.873445	301.255446	495.516237	472.742360	315.162735	491.238480	454.633258	425.615813	450.786924	103.855187	284.097653	469.888038	100.969776	362.357960	411.049193	58.720726	327.147325	612.139780	47.366097	347.362417	579.637149	46.104880	245.183270	446.208001	364.324551	269.982819	472.404010	281.426508	275.852889	451.896195	194.312763	273.375574	501.452040	283.083679	301.614724	653.407153	92.365125	295.308320	
504	2.5200	462.085303	1377.167914	683.783761	482.091780	1385.945123	305.411303	431.384161	1426.371488	485.496936	562.077734	1373.075887	502.170915	454.743854	1119.779116	814.915088	476.489016	907.369769	926.875903	480.850040	1106.663644	196.873337	534.853844	903.126222	94.844896	386.956140	931.421334	496.881692	533.337527	993.540877	350.439556	536.745500	1001.492476	649.846140	597.247503	918.611481	383.183587	581.362530	907.698293	639.172325	405.908772	971.893056	558.904805	405.816877	983.467632	445.832786	464.641329	853.650016	684.445063	471.059749	854.396238	308.630378	484.417615	729.183164	715.062502	506.910661	643.310223	700.683277	484.882471	561.455700	691.996919	543.739749	646.076744	692.081440	493.807065	459.322875	675.157772	481.807705	441.206016	562.531343	447.914112	360.072395	716.985688	468.977622	273.156874	714.775862	444.323588	190.605369	716.730843	500.654179	274.189272	691.591718	454.144556	84.996839	709.968655	483.573527	95.902428	630.085455	420.396116	50.236373	655.120984	652.000730	85.059999	711.338229	566.127828	42.134154	755.918764	609.717702	46.719811	658.370292	493.352336	746.159130	283.039734	515.189427	665.011438	292.579974	549.879703	666.211003	305.011119	494.158845	577.866176	301.241365	495.478177	472.731434	315.163688	491.246827	454.637424	425.612273	450.798090	103.854983	284.089326	469.900865	100.978894	362.349738	411.059938	58.726940	327.134221	612.149716	47.393809	347.356849	579.607917	46.112587	245.179103	446.198158	364.319521	269.970643	472.444805	281.437892	275.864961	451.901849	194.309067	273.382873	501.473252	283.099595	301.616216	653.393299	92.363142	295.315073	
